HIERARCHY
ROOT Pelvis
{
	OFFSET 0.32 0 0
	CHANNELS 6 Xposition Yposition Zposition Zrotation Xrotation Yrotation
	JOINT SpineShoulder
	{
		OFFSET 0 6.740009 0
		CHANNELS 3 Zrotation Xrotation Yrotation
		JOINT Neck
		{
			OFFSET 0 2.640004 0
			CHANNELS 3 Zrotation Xrotation Yrotation
			End Site
			{
				OFFSET 0 4.719998 0
			}
		}
		JOINT ShoulderLeft
		{
			OFFSET 3.340001 0.6799955 0
			CHANNELS 3 Zrotation Xrotation Yrotation
			JOINT ElbowLeft
			{
				OFFSET 5.307964 0 0
				CHANNELS 3 Zrotation Xrotation Yrotation
				End Site
				{
					OFFSET 4.786495 0 0
				}
			}
		}
		JOINT ShoulderRight
		{
			OFFSET -3.300001 0.6799955 0
			CHANNELS 3 Zrotation Xrotation Yrotation
			JOINT ElbowRight
			{
				OFFSET -5.307964 0 0
				CHANNELS 3 Zrotation Xrotation Yrotation
				End Site
				{
					OFFSET -4.786495 0 0
				}
			}
		}
	}
	JOINT HipLeft
	{
		OFFSET 2.560001 -1.599997 0
		CHANNELS 3 Zrotation Xrotation Yrotation
		JOINT KneeLeft
		{
			OFFSET 0 -8.508625 0
			CHANNELS 3 Zrotation Xrotation Yrotation
			End Site
			{
				OFFSET 0 -7.880188 0
			}
		}
	}
	JOINT HipRight
	{
		OFFSET -2.560001 -1.599997 0
		CHANNELS 3 Zrotation Xrotation Yrotation
		JOINT KneeRight
		{
			OFFSET 0 -8.508625 0
			CHANNELS 3 Zrotation Xrotation Yrotation
			End Site
			{
				OFFSET 0 -7.880188 0
			}
		}
	}
}
MOTION
Frames: 38
Frame Time: 0.03333334
0 0 0 -355.6293 11.08865 45.12717 -344.2913 35.13088 342.6503 -5.916064 341.1425 359.5173 -4.679016 347.9075 5.301679 -56.6242 302.3693 261.8646 -70.88027 292.3629 292.2617 -67.07069 67.57047 45.83213 -330.423 296.596 26.2431 -131.787 83.74035 115.1557 -4.839951 302.8324 3.066039 -239.8638 80.02293 239.5925
0 0 0 -355.846 12.18618 43.25961 -342.9383 37.74668 338.8477 -5.50539 335.9059 359.636 -7.502579 339.9528 7.6019 -44.79977 313.1189 263.8751 -70.47358 293.7388 283.5967 -59.74479 55.46092 35.47636 -333.0943 303.3877 21.98775 -71.27677 82.83429 52.49405 -2.869295 303.3007 4.333764 -265.9151 85.28436 263.2839
0 0 0 -355 12.26008 42.42754 -344.7927 36.94221 337.9968 -5.929368 337.3442 358.9569 -5.21387 339.2209 7.44149 -38.9048 313.1091 270.5509 -60.02995 293.2056 292.5824 -49.77883 56.16917 20.70395 -334.8868 308.0087 19.36774 -51.35427 82.11368 31.70518 -1.083041 305.8802 5.389683 -307.3688 86.90092 302.7453
0 0 0 -355.0965 11.82249 40.52256 -343.7359 36.2672 338.4165 -7.983712 338.0585 357.9268 -12.33366 339.6199 3.251261 -31.01124 315.0292 274.0112 -55.46064 292.7793 293.077 -30.50749 54.49076 11.21634 -338.7831 309.3701 16.45863 -9.767747 83.24268 353.5682 -359.0674 306.1803 6.179757 -312.1635 87.3039 306.6479
0 0 0 -354.9334 12.48891 38.74642 -343.4369 37.46444 338.4205 -7.079988 335.6523 358.5568 -16.4693 337.9316 357.0531 -22.32324 314.1324 280.0833 -57.85577 293.5082 286.9034 -13.16923 52.48994 12.91084 -340.77 307.9708 16.08416 -25.67384 83.05737 9.879333 -2.260148 308.4398 4.362991 -323.1051 85.46802 319.1231
0 0 0 -354.9536 12.05383 36.72379 -344.4283 34.60626 340.4905 -6.650069 337.9972 358.9483 -17.31381 339.9435 358.1827 -27.46019 326.7011 277.2811 -41.72241 290.827 305.9281 -20.0682 50.25353 5.079817 -333.832 304.0359 21.28477 -54.5368 86.83102 36.88264 -359.4938 307.9558 5.638024 -282.8091 83.18125 279.2067
0 0 0 -355.6928 12.71044 32.40086 -347.8332 35.14587 341.3288 -2.757671 337.1963 0.3594541 -22.35875 335.8322 355.6119 -12.52417 328.8943 288.6779 -27.21838 292.7021 313.072 -351.3343 44.59277 17.60647 -342.9453 305.9773 14.93924 -185.1103 87.06108 171.0682 -3.377115 305.5969 3.284623 -306.5256 83.2432 304.958
0 0 0 -354.6579 12.0795 33.64668 -348.8944 34.20425 342.4503 -2.861184 340.2117 0.3362182 -26.06983 342.1732 352.9812 -10.48431 323.2911 290.1992 -23.69138 290.6327 314.7484 -356.5875 47.67999 9.702042 -346.2361 312.6376 11.61514 -359.1989 83.92866 346.0433 -5.86413 310.1386 2.047699 -318.7445 80.79673 318.3575
0 0 0 -355.6701 12.20214 33.8705 -347.8832 32.02047 341.7828 -5.274202 341.5058 358.9966 -27.51206 343.2264 349.9943 -5.780931 323.1953 298.4599 -21.64369 292.4757 311.6783 -3.459415 43.7851 2.845405 -339.325 308.667 16.11352 -94.12283 88.87048 77.49826 -6.554558 308.0601 1.401016 -302.8731 80.70567 303.8513
0 0 0 -354.832 11.5811 31.46714 -353.0015 31.56638 345.651 -4.352538 345.2106 359.0447 -35.05369 348.5672 351.2866 -359.0483 323.9908 290.078 -10.96974 293.0163 321.5965 -11.65471 46.09229 34.34439 -350.088 306.5754 10.62921 -232.1641 84.43848 223.0284 -7.136546 306.9188 1.189528 -301.5979 81.99546 302.3489
0 0 0 -353.9981 11.19265 27.68575 -350.1902 34.25461 344.3973 -3.005568 338.4985 0.2898146 -42.62045 343.4542 347.6552 -351.0653 328.1156 300.2859 -348.5563 290.8604 342.1728 -14.91089 37.98662 26.46048 -347.4178 328.8957 7.180566 -3.385866 69.08538 350.0909 -353.1123 341.4219 3.268502 -11.32664 47.11548 358.8109
0 0 0 -354.0866 13.28143 26.39981 -353.1446 27.14811 346.0013 -4.853121 345.4973 359.0353 -43.83323 347.8453 346.7804 -347.9479 333.07 299.1753 -342.9548 297.5653 347.5698 -16.25128 34.58138 23.39753 -351.0956 311.6117 9.506753 -275.064 84.73236 265.9456 -7.998404 305.4152 0.99602 -290.5817 78.02601 293.1026
0 0 0 -355.0334 12.44935 28.63547 -353.0996 27.14329 345.9874 -1.182659 346.8414 0.5463158 -44.15959 352.5021 344.5677 -345.7611 328.6833 304.9902 -352.015 296.1892 335.334 -5.240175 40.50544 17.83386 -347.21 307.5948 12.02725 -230.7776 85.4533 219.7198 -6.365009 307.122 1.46273 -289.7457 76.36305 292.7419
0 0 0 -355.5264 12.37143 28.28908 -354.83 24.46999 347.8619 -3.416517 350.1632 359.3956 -43.52382 355.7437 346.5039 -356.1875 335.9865 301.1049 -345.2559 297.8874 341.7634 -8.645128 44.00744 31.70143 -347.5628 308.7773 11.32269 -262.9293 83.99792 253.3986 -6.951633 304.9225 0.9390413 -272.2843 77.13607 275.6068
0 0 0 -356.3553 12.2258 26.82827 -355.5422 23.33917 348.9869 -359.811 350.3513 0.7074972 -50.61073 357.7787 347.2247 -348.8701 337.541 301.9137 -335.3612 298.4262 343.959 -11.58749 44.61206 39.58084 -345.0895 311.2294 11.65946 -350.8851 80.49863 339.7949 -3.147167 306.7863 2.482038 -295.5977 79.25834 296.5854
0 0 0 -358.0427 12.77558 27.41329 -356.2635 20.8064 349.9668 -0.5865418 351.7415 0.2459198 -50.74116 0.9737373 347.2173 -355.5962 345.9197 297.2272 -328.0608 298.8555 348.5467 -21.65325 45.15496 52.34581 -346.765 305.1462 11.5902 -11.40843 81.7393 1.472932 -3.36782 301.3891 1.996575 -263.3498 79.20408 265.1253
0 0 0 -357.8329 13.21138 26.22357 -358.3423 19.0589 351.2686 -357.8107 353.2596 1.032133 -53.53703 2.02086 350.1555 -353.78 344.3561 301.6493 -322.9824 300.6862 351.6074 -8.795599 48.72289 38.70044 -347.2328 304.711 11.51233 -352.0279 82.23085 343.2914 -9.820277 301.5242 358.0504 -259.1071 75.59423 265.0487
0 0 0 -0.01316904 13.78873 23.19816 -359.1153 13.33447 354.3036 -357.8043 358.1625 0.6130062 -56.16604 4.773173 352.4953 -356.2161 350.3812 304.7855 -313.4099 305.719 355.0827 -11.92063 50.27731 46.14851 -350.3404 294.9854 10.01994 -337.7347 87.32175 332.5327 -8.124557 296.1647 357.5932 -243.4108 76.44029 248.38
0 0 0 -359.9811 13.09319 24.11692 -357.5811 14.64568 353.323 -357.2817 357.7243 0.8087155 -55.59958 4.04837 351.8952 -3.689892 352.9387 308.2885 -314.8394 305.5974 357.0461 -3.142004 50.95496 37.78654 -350.7966 300.4612 8.811938 -354.9133 84.1267 349.0843 -8.630888 298.0756 357.3195 -245.3516 76.83215 250.7323
0 0 0 -0.3701992 13.21849 25.89913 -359.855 10.87634 353.709 -357.2539 0.02532148 0.5675761 -56.29862 12.22651 350.783 -3.605529 347.1511 314.1497 -309.4811 305.8901 356.913 -0.02304632 55.54449 33.57505 -354.7721 296.4724 6.739136 -43.28547 86.89259 38.32066 -9.486121 299.3978 356.8395 -230.9541 76.09798 236.5512
0 0 0 -2.034329 13.89209 24.72522 -357.8527 11.7478 352.0108 -356.0052 356.6313 1.105333 -57.85181 7.247739 347.48 -359.9575 355.4993 311.1921 -306.8606 309.1662 359.9265 -350.972 52.49515 30.43026 -353.6373 296.4232 6.671475 -48.33628 86.9365 43.49475 -7.144747 296.2674 357.3698 -228.688 76.3157 233.4597
0 0 0 -1.821417 13.74046 23.24027 -358.1599 11.5356 353.647 -357.5785 359.3762 0.5731054 -61.76465 8.420653 348.812 -6.788072 359.047 315.4529 -303.8174 308.2304 358.5964 -337.8698 58.25388 24.99077 -356.8169 298.228 4.225292 -67.83399 84.9408 63.13556 -3.711816 294.8519 359.617 -217.582 75.62845 220.376
0 0 0 -3.519186 15.44611 22.21097 -357.0607 8.4667 352.6653 -358.9716 359.6165 0.2355638 -63.34542 6.557545 347.1785 -7.376417 3.441563 318.4677 -300.0995 314.6296 3.441271 -331.8603 52.96721 20.36344 -352.8042 299.3672 6.197915 -52.71479 84.07176 46.81438 -6.544264 297.266 356.9236 -254.4834 81.44205 259.0601
0 0 0 -3.416035 15.37056 23.90459 -356.8311 8.073185 351.8747 -356.526 359.2895 0.7826648 -64.8168 9.571068 346.3453 -6.588265 359.3173 321.3351 -298.6223 313.6981 4.250706 -325.0928 57.77513 18.94938 -350.3921 300.6585 7.937796 -80.60943 80.13577 71.09178 -6.189225 299.5446 357.5428 -247.3534 80.36783 252.1264
0 0 0 -2.486028 13.73245 21.80011 -358.095 9.054703 354.0582 -358.4703 1.714541 0.254968 -64.38013 10.59339 347.3009 -7.22053 10.00499 310.3242 -294.5114 315.1729 6.982635 -321.9278 62.44809 20.9361 -356.0169 305.8066 3.712893 -37.30016 81.71028 31.86124 -5.609444 303.3957 357.9366 -250.6833 79.10133 256.3563
0 0 0 -3.277733 14.40053 23.29919 -357.7191 6.602201 353.7129 -359.9004 1.444739 359.9845 -64.13638 12.96422 348.125 -13.88386 8.536147 314.6666 -293.7953 315.3585 7.448925 -317.7663 65.2982 19.59309 -354.5565 303.5349 4.727382 -58.11948 83.55604 51.98243 -9.342242 302.8826 355.4839 -244.3323 79.17992 251.6197
0 0 0 -4.929374 18.16978 20.79351 -357.8485 1.595806 353.6685 -1.060887 1.976288 359.7972 -67.58667 11.79872 345.3738 -12.97921 18.51847 313.5688 -286.5834 323.0253 10.3303 -324.3695 66.94231 28.88802 -353.0502 304.718 5.261565 -44.5085 80.58762 37.38065 -358.1048 301.9848 2.14555 -302.4352 84.67008 302.8184
0 0 0 -5.513349 19.01504 22.42249 -358.0364 1.231886 353.3604 -0.2258507 0.9699115 359.9467 -67.47892 13.99783 344.3787 -14.55684 18.55315 313.1059 -284.6396 321.1215 11.70255 -321.9513 66.64459 24.15112 -348.5322 303.2366 8.52377 -67.55227 79.84419 57.03361 -1.782374 301.191 359.8609 -268.8065 85.00359 270.8437
0 0 0 -3.87797 16.1042 20.48863 -358.8566 2.397583 353.9159 -0.4147102 1.966215 359.9189 -67.96214 14.53079 345.091 -19.09135 20.4231 315.8611 -285.593 324.3557 10.87106 -315.0106 65.59103 20.66924 -357.0881 310.5842 2.497692 -24.29514 76.85427 19.13326 -7.989147 305.6285 356.0414 -300.4392 80.79824 306.806
0 0 0 -3.153472 15.83874 17.87213 -359.5244 2.927506 353.9037 -359.8627 1.310719 0.01851521 -69.85018 11.19376 344.9266 -21.36337 26.15623 317.6652 -284.3375 329.7726 12.39806 -310.643 65.34903 21.71991 -357.3502 315.7498 2.075819 -27.369 76.26744 21.42365 -4.739665 307.246 358.026 -320.2682 81.80621 324.037
0 0 0 -3.912313 15.66532 16.69658 -359.3738 1.879 355.2094 -0.2663722 359.7032 359.9565 -70.15581 11.91934 345.588 -24.29224 24.31762 321.0717 -281.0579 331.6974 13.35207 -315.9605 63.67263 22.82008 -358.8827 314.934 0.8631502 -18.71833 74.4726 15.05103 -5.470916 307.4934 357.0771 -327.6256 79.5799 332.4322
0 0 0 -2.528646 16.17687 14.55701 -0.318338 2.006374 354.2919 -359.8978 0.6200147 0.01894958 -74.09496 8.481974 345.0619 -16.93002 31.44475 317.3065 -284.1276 334.8899 11.36962 -317.2663 60.8963 26.17278 -2.799886 321.4284 359.2165 -9.189425 67.37959 7.530715 -0.8545426 309.3608 0.2130015 -351.9254 77.44421 352.371
0 0 0 -1.712167 15.18862 10.5542 -359.6793 2.313601 355.2956 -0.1220958 1.304033 359.983 -72.77129 2.472914 346.1567 -19.48607 34.58001 318.9315 -284.7252 340.3946 10.75037 -328.1522 55.89946 33.27962 -4.075718 322.8879 358.5169 -12.40792 67.02304 10.84699 -9.948785 312.807 355.0773 -332.9708 74.49071 340.7093
0 0 0 -2.813228 16.44459 9.449884 -359.1156 4.573668 355.8275 -358.8578 0.7034938 0.2124358 -74.09764 358.7463 344.7627 -20.89945 34.19768 323.098 -285.3425 340.7305 14.39576 -322.5423 54.07708 30.76914 -1.687911 325.2784 359.224 -9.457958 58.88689 7.082457 -5.172748 311.9375 357.0732 -342.4171 71.44016 347.6397
0 0 0 -0.8665757 16.35806 4.361681 -359.2833 3.87248 356.5055 -359.9721 2.248739 0.007704234 -75.09435 351.4897 345.9208 -25.05662 41.97911 325.0267 -289.2896 345.9704 10.87644 -327.194 52.02141 38.18797 -5.916032 304.9932 356.5204 -35.97421 79.75301 35.51391 -11.55645 302.5434 352.7623 -320.3381 80.47214 327.4777
0 0 0 -0.6038246 15.85893 2.747704 -359.9677 4.269166 357.0252 -359.6135 2.700349 0.08034816 -72.85224 349.2537 346.2074 -27.54252 45.81446 323.7159 -290.9534 349.2357 13.3168 -343.6479 53.1004 56.87667 -9.667789 308.3148 354.4111 -25.19163 74.7748 26.13167 -16.56915 304.978 349.8314 -332.2383 76.31596 341.6329
0 0 0 -0.829264 15.79996 5.797633 -359.8586 5.68532 355.2908 -0.2431475 2.4593 359.9777 -72.8781 351.4795 344.4952 -21.89322 44.39664 319.0691 -289.5276 345.0003 12.16897 -345.1703 56.27459 57.80333 -4.826563 325.1613 358.1364 -14.35525 62.468 11.99956 -11.78941 313.1935 353.9426 -345.825 67.00745 353.2256
0 0 0 -1.980018 17.28656 7.25768 -359.799 7.106522 354.8615 -358.9692 358.1328 0.2093742 -72.97974 350.5839 343.6368 -25.47556 43.14939 322.7462 -290.8378 342.0607 14.81208 -320.6007 51.72086 34.98949 -4.614858 321.4252 357.8594 -12.82919 63.89133 11.3445 -8.487602 311.2265 355.2626 -346.9965 67.43588 352.9048
